<svg width="193" height="42" viewBox="0 0 193 42" fill="none" xmlns="http://www.w3.org/2000/svg">
<g clip-path="url(#clip0_103_1350)">
<path d="M49.3722 5.30806C49.3722 2.54741 47.128 0.222656 44.3047 0.222656C41.5538 0.222656 39.3096 2.47476 39.3096 5.30806C39.3096 8.06871 41.5538 10.3208 44.3047 10.3208C47.128 10.3208 49.3722 8.06871 49.3722 5.30806Z" fill="white"/>
<path d="M80.5013 27.248L82.673 24.6327L90.2019 36.9829H99.2511L88.1025 19.1114L98.8167 7.34229H89.116L80.5013 17.2951V16.2781C80.5013 11.338 75.3613 7.34229 69.0631 7.34229C68.484 7.34229 64.2852 7.34229 63.7061 7.34229C63.7061 9.3038 63.7061 13.0089 63.7061 15.043H67.7601C69.8595 15.043 71.5969 16.3507 71.5969 18.0216C71.5969 24.9233 71.5969 30.0813 71.5969 36.9829C74.565 36.9829 77.5331 36.9829 80.5013 36.9829V27.248Z" fill="white"/>
<path d="M26.5684 7.26953C26.5684 9.23104 26.5684 12.9361 26.5684 14.9703H26.9303C29.0297 14.9703 30.7672 16.278 30.7672 17.9489C30.7672 24.8505 30.7672 30.0086 30.7672 36.9102C33.7353 36.9102 36.7034 36.9102 39.6715 36.9102C39.6715 33.2777 39.6715 30.5171 39.6715 26.8847C39.6715 26.5941 39.6715 26.3035 39.6715 26.0129C39.6715 25.577 39.8887 25.4317 40.4678 25.4317C40.8298 25.4317 41.1918 25.4317 41.6261 25.4317C43.5083 25.4317 45.3906 25.4317 47.2728 25.4317C47.6348 25.4317 48.0691 25.4317 48.4311 25.4317C48.9378 25.4317 49.155 25.577 49.155 26.0129C49.155 26.3035 49.155 26.5941 49.155 26.8847C49.155 30.5171 49.155 33.2777 49.155 36.9102C52.1231 36.9102 55.1636 36.9102 58.1318 36.9102C58.1318 30.0086 58.1318 24.8505 58.1318 17.9489C58.1318 16.278 59.8692 14.9703 61.9686 14.9703H62.2582C62.2582 13.0088 62.2582 9.30369 62.2582 7.26953C61.679 7.26953 61.1723 7.26953 60.5931 7.26953C54.2949 7.26953 49.155 11.2652 49.155 16.2053C49.155 16.4959 49.155 17.6583 49.155 17.9489C49.155 18.2395 49.155 18.5301 49.155 18.8207C49.155 19.2566 48.9378 19.4019 48.4311 19.4019C48.0691 19.4019 47.6348 19.4019 47.2728 19.4019C45.3906 19.4019 43.5083 19.4019 41.6261 19.4019C41.2642 19.4019 40.8298 19.4019 40.4678 19.4019C39.9611 19.4019 39.6715 19.2566 39.6715 18.8207C39.6715 18.5301 39.6715 18.2395 39.6715 17.9489C39.6715 17.6583 39.6715 16.4959 39.6715 16.2053C39.6715 11.2652 34.5316 7.26953 28.2334 7.26953C27.6543 7.26953 27.0751 7.26953 26.5684 7.26953Z" fill="white"/>
<path d="M7.81845 36.9102H17.1572C17.1572 29.9359 17.1572 24.7052 17.1572 17.7309C17.3743 15.9874 18.4602 15.0429 20.4872 14.9703H24.9756V7.26953H0V14.8976C2.24419 14.8976 2.82333 14.8976 5.06752 14.8976C7.02213 14.8976 7.74606 15.6968 7.74606 17.2224V36.9102H7.81845Z" fill="white"/>
<path d="M162.305 36.9829V35.4572C162.812 35.3846 163.319 35.2393 163.753 35.0214C164.332 34.6581 164.839 34.2222 165.129 33.5684C165.346 33.1325 165.491 32.406 165.491 31.5342V30.8077C164.767 31.0983 163.753 31.3163 162.378 31.5342V29.8633C163.753 29.6454 164.767 29.5001 165.491 29.2095C165.491 28.9189 165.491 28.7736 165.491 28.7009C165.491 27.9018 165.273 27.248 164.911 26.9574C164.405 26.5215 163.608 26.2309 162.595 26.2309C162.522 26.2309 162.45 26.2309 162.378 26.2309V24.56C162.522 24.56 162.74 24.56 162.884 24.56C163.898 24.56 164.767 24.7052 165.418 24.9232C166.07 25.1411 166.504 25.5044 166.866 25.8676C167.156 26.2309 167.373 26.6668 167.518 27.248C167.59 27.6112 167.59 28.1924 167.59 29.1368V31.8975C167.59 33.7863 167.662 35.0214 167.735 35.5299C167.807 36.0384 168.024 36.547 168.241 36.9829H166.142C165.925 36.547 165.78 36.0384 165.708 35.4572C164.984 36.1111 164.187 36.547 163.536 36.8376C163.029 36.8376 162.667 36.9829 162.305 36.9829ZM170.413 36.8376V24.7779H172.223V26.5215C173.092 25.2138 174.395 24.56 176.06 24.56C176.784 24.56 177.435 24.7052 178.087 24.9232C178.666 25.2138 179.173 25.5044 179.462 25.9403C179.752 26.3762 179.969 26.8847 180.114 27.4659C180.186 27.8291 180.259 28.483 180.259 29.4274V36.8376H178.232V29.5001C178.232 28.7009 178.159 28.0471 178.015 27.6112C177.87 27.1753 177.58 26.8847 177.146 26.5941C176.711 26.3762 176.277 26.2309 175.698 26.2309C174.829 26.2309 174.105 26.5215 173.454 27.03C172.802 27.6112 172.513 28.6283 172.513 30.1539V36.7649H170.413V36.8376ZM183.01 41.4871L182.792 39.5982C183.227 39.7435 183.661 39.7435 183.951 39.7435C184.385 39.7435 184.747 39.6709 185.037 39.5256C185.326 39.3803 185.543 39.1623 185.688 38.8717C185.833 38.6538 186.05 38.1452 186.34 37.3461C186.412 37.2008 186.412 37.0555 186.557 36.8376L181.996 24.7779H184.168L186.702 31.7522C186.991 32.624 187.353 33.5684 187.57 34.5128C187.788 33.5684 188.077 32.624 188.439 31.7522L191.045 24.7053H193.072L188.512 36.9829C188.005 38.2905 187.643 39.235 187.353 39.7435C186.991 40.3974 186.557 40.9059 186.123 41.1965C185.616 41.4871 185.109 41.705 184.458 41.705C183.951 41.7777 183.516 41.6324 183.01 41.4871ZM162.305 24.4873V26.1582C161.437 26.1582 160.785 26.3762 160.423 26.6668C159.989 27.03 159.627 27.6112 159.409 28.483L157.382 28.1924C157.527 27.3206 157.889 26.6668 158.251 26.0856C158.686 25.577 159.265 25.1411 160.061 24.8505C160.785 24.7053 161.509 24.56 162.305 24.4873ZM162.305 29.7907V31.4616H162.088C161.219 31.6069 160.64 31.7522 160.278 31.8975C159.916 32.0428 159.627 32.2607 159.482 32.5513C159.265 32.8419 159.192 33.1325 159.192 33.4957C159.192 34.0769 159.41 34.5128 159.844 34.8761C160.278 35.2393 160.857 35.3846 161.654 35.3846C161.871 35.3846 162.088 35.3846 162.305 35.312V36.8376C161.943 36.9102 161.509 36.9102 161.147 36.9102C159.844 36.9102 158.83 36.6196 158.106 35.9658C157.382 35.312 157.021 34.5128 157.021 33.4957C157.021 32.9145 157.165 32.3334 157.455 31.8975C157.744 31.3889 158.106 31.0257 158.541 30.7351C158.975 30.4445 159.482 30.2265 159.989 30.0812C160.351 30.0086 161.002 29.8633 161.798 29.7907C161.943 29.8633 162.16 29.8633 162.305 29.7907ZM150.143 37.1282V35.4572C151.012 35.4572 151.808 35.094 152.46 34.2949C153.111 33.4957 153.401 32.3334 153.401 30.7351C153.401 29.2095 153.111 28.0471 152.46 27.248C151.808 26.4488 151.084 26.0856 150.216 26.0856H150.143V24.4873C150.216 24.4873 150.288 24.4873 150.36 24.4873C151.374 24.4873 152.315 24.7779 153.111 25.2864C153.908 25.795 154.487 26.5941 154.921 27.5385C155.355 28.483 155.5 29.5727 155.5 30.7351C155.5 31.9701 155.283 33.0598 154.849 34.0769C154.414 35.094 153.763 35.8205 152.894 36.329C152.025 36.8376 151.157 37.1282 150.216 37.1282H150.143ZM150.143 24.4873V26.0856C149.274 26.0856 148.551 26.5215 147.899 27.3206C147.247 28.1197 146.885 29.3548 146.885 30.8804C146.885 32.406 147.175 33.5684 147.827 34.2949C148.478 35.0214 149.202 35.3846 150.071 35.3846H150.143V37.0555C149.492 37.0555 148.912 36.9102 148.406 36.6196C147.899 36.329 147.392 35.9658 147.103 35.5299V41.4144H145.076V24.7053H146.958V26.3762C147.392 25.795 147.899 25.2864 148.406 24.9958C148.912 24.7052 149.492 24.56 150.143 24.4873ZM118.145 37.1282V35.4572C119.159 35.4572 120.028 35.094 120.679 34.2949C121.331 33.4957 121.693 32.3334 121.693 30.7351C121.693 29.2095 121.331 28.1197 120.679 27.3206C120.028 26.5215 119.159 26.1582 118.145 26.1582V24.4873C119.81 24.4873 121.186 24.9958 122.199 26.0856C123.213 27.1753 123.792 28.7009 123.792 30.5898C123.792 32.1154 123.575 33.3504 123.068 34.2222C122.634 35.094 121.91 35.8205 121.041 36.329C120.172 36.9102 119.231 37.1282 118.145 37.1282ZM125.964 36.8376V24.7779H127.774V26.4488C128.136 25.8676 128.642 25.3591 129.294 24.9958C129.946 24.6326 130.669 24.4873 131.466 24.4873C132.334 24.4873 133.058 24.7053 133.638 25.0685C134.217 25.4317 134.579 25.9403 134.868 26.5941C135.809 25.2138 137.04 24.4873 138.56 24.4873C139.719 24.4873 140.66 24.8505 141.311 25.5044C141.963 26.1582 142.252 27.1753 142.252 28.5556V36.8376H140.225V29.2095C140.225 28.4103 140.153 27.8291 140.008 27.4659C139.863 27.1027 139.646 26.8121 139.284 26.5941C138.922 26.3762 138.56 26.2309 138.054 26.2309C137.185 26.2309 136.533 26.5215 135.954 27.1027C135.375 27.6838 135.085 28.5556 135.085 29.7907V36.8376H133.058V28.9915C133.058 28.0471 132.914 27.3932 132.552 26.9574C132.19 26.5215 131.683 26.3035 130.887 26.3035C130.307 26.3035 129.801 26.4488 129.294 26.7394C128.787 27.03 128.425 27.4659 128.208 28.0471C127.991 28.6283 127.846 29.5001 127.846 30.5898V36.8376H125.964ZM109.748 32.406L111.775 32.6966C111.558 34.0769 110.979 35.1667 110.11 35.9658C109.241 36.7649 108.083 37.1282 106.78 37.1282C105.115 37.1282 103.812 36.6196 102.798 35.5299C101.785 34.4402 101.278 32.9145 101.278 30.8804C101.278 29.5727 101.495 28.4103 101.929 27.4659C102.364 26.5215 103.015 25.7223 103.884 25.2864C104.753 24.7779 105.694 24.56 106.78 24.56C108.083 24.56 109.169 24.9232 109.965 25.577C110.761 26.2309 111.34 27.1753 111.558 28.4103L109.603 28.7009C109.386 27.9018 109.096 27.248 108.59 26.8847C108.083 26.4488 107.504 26.3035 106.852 26.3035C105.839 26.3035 104.97 26.6668 104.318 27.3933C103.667 28.1197 103.377 29.2821 103.377 30.8804C103.377 32.4787 103.667 33.7137 104.318 34.4402C104.97 35.1667 105.766 35.5299 106.707 35.5299C107.504 35.5299 108.155 35.312 108.734 34.8034C109.241 34.2222 109.603 33.4231 109.748 32.406ZM118.145 24.4873V26.1582C117.132 26.1582 116.263 26.5215 115.612 27.3206C114.96 28.1197 114.598 29.2095 114.598 30.8077C114.598 32.3334 114.96 33.4957 115.612 34.2949C116.263 35.094 117.132 35.4572 118.145 35.4572V37.1282C116.48 37.1282 115.105 36.6196 114.091 35.5299C113.078 34.4402 112.499 32.9145 112.499 30.8804C112.499 28.6283 113.15 26.9574 114.381 25.9403C115.394 24.9232 116.625 24.4873 118.145 24.4873Z" fill="white"/>
</g>
<defs>
<clipPath id="clip0_103_1350">
<rect width="193" height="41.555" fill="white" transform="translate(0 0.222656)"/>
</clipPath>
</defs>
</svg>
